<?xml version="1.0" encoding="UTF-8"?>
<!DOCTYPE svg PUBLIC "-//W3C//DTD SVG 1.1//EN" "http://www.w3.org/Graphics/SVG/1.1/DTD/svg11.dtd">
<!-- Creator: CorelDRAW 2020 (64 Bit) -->
<svg xmlns="http://www.w3.org/2000/svg" xml:space="preserve" width="10.4444mm" height="11.3875mm" version="1.1" style="shape-rendering:geometricPrecision; text-rendering:geometricPrecision; image-rendering:optimizeQuality; fill-rule:evenodd; clip-rule:evenodd"
viewBox="0 0 57.48 62.67"
 xmlns:xlink="http://www.w3.org/1999/xlink"
 xmlns:xodm="http://www.corel.com/coreldraw/odm/2003">
 <defs>
  <style type="text/css">
   <![CDATA[
    .fil0 {fill:#ffffff;fill-rule:nonzero; background:#ff6600;}
   ]]>
  </style>
 </defs>
 <g id="Camada_x0020_1">
  <metadata id="CorelCorpID_0Corel-Layer"/>
  <g id="_2563516866576">
   <path class="fil0" d="M53.68 46.84c-0.36,0.66 -0.75,1.3 -1.15,1.91 -0.1,0.16 -0.27,0.27 -0.47,0.27l-35.49 0c-0.3,0 -0.55,-0.25 -0.55,-0.55l0 -47.92c0,-0.3 0.25,-0.55 0.55,-0.55l5.12 0c0.3,0 0.55,0.25 0.55,0.55l0 43.5 31.95 0c0.08,0 0.15,0.02 0.23,0.05 0.28,0.13 0.4,0.45 0.27,0.73 -0.31,0.69 -0.65,1.36 -1.01,2.01z"/>
   <path class="fil0" d="M56.52 39.55c-0.15,0.63 -0.33,1.26 -0.53,1.89 -0.05,0.25 -0.27,0.43 -0.54,0.43l-30.49 0c-0.3,0 -0.55,-0.25 -0.55,-0.55l0 -40.78c0,-0.3 0.25,-0.54 0.55,-0.54 0.9,0.01 1.78,0.05 2.62,0.11l0.01 0c0.86,0.06 1.71,0.16 2.56,0.27 0.27,0.04 0.47,0.27 0.47,0.54l-0.01 3.07c-0.01,3.25 -0.03,8.68 -0.03,15.26 0,8.85 -0.6,17.64 -0.33,17.64l26.14 0 0.09 0.01c0.3,0.05 0.5,0.34 0.45,0.64 -0.12,0.67 -0.26,1.34 -0.42,2z"/>
   <path class="fil0" d="M57.47 32.27c-0.02,0.66 -0.05,1.3 -0.1,1.93 -0.01,0.3 -0.25,0.54 -0.55,0.54l-23.46 0c-0.3,0 -0.55,-0.25 -0.55,-0.55l0 -32.64 0.01 -0.12c0.07,-0.3 0.36,-0.48 0.66,-0.41 0.89,0.21 1.77,0.45 2.65,0.73 0.87,0.28 1.72,0.59 2.55,0.93 0.2,0.08 0.34,0.28 0.34,0.51l0.18 26.59 17.71 0c0.3,0 0.54,0.24 0.55,0.54 0.02,0.65 0.02,1.31 0,1.97z"/>
   <path class="fil0" d="M56.92 24.98c0.12,0.66 0.22,1.32 0.3,1.97l0.01 0.09c0,0.3 -0.25,0.55 -0.55,0.55l-14.92 0c-0.3,0 -0.55,-0.25 -0.55,-0.55l0 -22.29c0,-0.09 0.02,-0.18 0.07,-0.26 0.15,-0.27 0.48,-0.36 0.75,-0.22 0.95,0.52 1.86,1.09 2.73,1.69 0.87,0.6 1.7,1.24 2.48,1.92 0.12,0.1 0.19,0.25 0.19,0.41l0.18 14.34 8.37 0c0.25,0 0.47,0.17 0.53,0.42 0.16,0.63 0.3,1.28 0.42,1.94z"/>
   <path class="fil0" d="M5.45 58.34l34.41 0c0.3,0 0.55,0.25 0.55,0.55 0,0.24 -0.15,0.44 -0.37,0.52 -2.33,1.08 -4.8,1.9 -7.42,2.44 -2.63,0.55 -5.41,0.82 -8.33,0.82l-23.75 0c-0.3,0 -0.55,-0.25 -0.55,-0.55l0 -61.57c0,-0.3 0.25,-0.55 0.55,-0.55l4.35 0c0.3,0 0.55,0.25 0.55,0.55l0 57.79z"/>
   <path class="fil0" d="M50.6 11.3c1.03,1.24 1.95,2.57 2.76,3.96 0.82,1.42 1.53,2.91 2.1,4.44 0.11,0.28 -0.04,0.6 -0.32,0.71 -0.06,0.02 -0.13,0.04 -0.19,0.04l-4.8 0c-0.3,0 -0.55,-0.25 -0.55,-0.55l0 -8.28c0,-0.3 0.25,-0.55 0.55,-0.55 0.19,0 0.35,0.09 0.45,0.24z"/>
   <path class="fil0" d="M47.93 54.18c-0.7,0.64 -1.44,1.26 -2.22,1.84 -0.1,0.09 -0.23,0.14 -0.37,0.14l-37.17 0c-0.3,0 -0.55,-0.25 -0.55,-0.55l0 -55.06c0,-0.3 0.25,-0.55 0.55,-0.55l5.12 0c0.3,0 0.55,0.25 0.55,0.55l0 50.64 35.71 0c0.13,0 0.26,0.05 0.37,0.14 0.23,0.2 0.25,0.55 0.05,0.78 -0.64,0.72 -1.32,1.41 -2.04,2.07z"/>
  </g>
 </g>
</svg>
