<?xml version="1.0" encoding="UTF-8"?>
<!DOCTYPE svg PUBLIC "-//W3C//DTD SVG 1.1//EN" "http://www.w3.org/Graphics/SVG/1.1/DTD/svg11.dtd">
<!-- Creator: CorelDRAW 2020 (64 Bit) -->
<svg xmlns="http://www.w3.org/2000/svg" xml:space="preserve" width="171.269mm" height="51.5641mm" version="1.1" style="shape-rendering:geometricPrecision; text-rendering:geometricPrecision; image-rendering:optimizeQuality; fill-rule:evenodd; clip-rule:evenodd"
viewBox="0 0 17112.69 5152.12"
 xmlns:xlink="http://www.w3.org/1999/xlink"
 xmlns:xodm="http://www.corel.com/coreldraw/odm/2003">
 <defs>
  <style type="text/css">
   <![CDATA[
    .fil1 {fill:#999}
    .fil0 {fill:#999;fill-rule:nonzero}
   ]]>
  </style>
 </defs>
 <g id="Camada_x0020_1">
  <metadata id="CorelCorpID_0Corel-Layer"/>
  <g id="_2196598703312">
   <g>
    <path class="fil0" d="M5689.63 1791.86c0,551.57 -185.9,984.3 -557.68,1298.18 -350.45,289.5 -807.55,434.25 -1371.32,434.25l-827.36 0 0 -3378.01 786.23 0c548.52,0 1004.11,134.08 1366.74,402.26 402.26,298.64 603.39,713.08 603.39,1243.32zm-603.39 36.57c0,-761.85 -518.05,-1142.77 -1554.16,-1142.77l0 2299.25 164.56 0c402.25,0 726.79,-89.91 973.63,-269.7 277.31,-201.12 415.96,-496.72 415.96,-886.78zm4232.81 1695.86l-644.52 0 -223.97 -438.82 -1755.29 0 -201.12 438.82 -653.67 0 1737 -3524.29 1741.57 3524.29zm-1124.48 -969.06l-617.09 -1293.61 -662.81 1293.61 1279.89 0zm3921.96 1023.92l-1956.41 -1956.41 0 1938.13 -658.23 0 0 -3528.85 1938.13 1938.13 0 -1865 676.52 0 0 3474.01zm1010.21 -54.85l-598.81 0 0 -3378.01 598.81 0 0 3378.01zm2006.69 0l-1613.59 0 0 -3378.01 1613.59 -4.58 13.71 603.39 -1023.92 0 0 694.79 950.78 0 0 585.1 -950.78 0 0 877.64 1023.92 0 -13.71 621.66zm1979.26 0l-1613.58 0 0 -3378.01 598.81 0 0 2838.63 1014.77 0 0 539.38z"/>
    <path class="fil0" d="M3621.25 5118.99l-687.98 0 0 -1440.28 255.31 0 0 1210.3 432.67 0 0 229.98zm1565.02 0l-274.8 0 -95.5 -187.1 -748.4 0 -85.76 187.1 -278.7 0 740.6 -1502.65 742.55 1502.65zm-479.44 -413.18l-263.11 -551.56 -282.6 551.56 545.72 0zm1718.98 331.32c-139.02,76.66 -276.1,114.98 -411.23,114.98 -214.39,0 -399.22,-75.36 -554.48,-226.08 -155.27,-150.71 -232.91,-332.62 -232.91,-545.71 0,-203.99 81.86,-378.1 245.58,-522.33 157.21,-139.02 339.12,-208.54 545.71,-208.54 83.15,0 153.32,7.14 210.48,21.44 51.98,12.99 117.59,38.98 196.85,77.96l-146.17 169.56c-46.78,-28.59 -138.37,-42.87 -274.8,-42.87 -136.44,0 -257.6,50.35 -363.49,151.04 -105.89,100.7 -158.84,219.26 -158.84,355.68 0,146.82 50.67,272.85 152.02,378.1 101.35,105.24 224.77,157.87 370.3,157.87 124.73,0 216.33,-26.64 274.8,-79.9l146.17 198.79zm812.72 81.85l-687.99 0 0 -1440.28 687.99 -1.95 5.85 257.27 -436.57 0 0 296.24 405.38 0 0 249.46 -405.38 0 0 374.2 436.57 0 -5.85 265.06zm752.29 -997.87c-41.58,-135.13 -158.51,-200.09 -350.81,-194.89l0 615.87 1.95 576.89 -255.32 0 0 -1440.28 294.29 0c178.01,0 315.09,38.33 411.23,114.99 114.34,98.74 174.12,239.07 179.31,420.97 -5.2,135.13 -49.38,244.27 -132.53,327.43l-93.55 93.55 343.01 483.34 -307.93 0 -401.49 -576.89c155.92,-20.79 257.27,-90.95 304.04,-210.48 31.18,-72.77 33.78,-142.93 7.79,-210.49zm1724.83 259.21c0,235.17 -79.25,419.68 -237.77,553.5 -149.42,123.44 -344.31,185.16 -584.68,185.16l-352.77 0 0 -1440.28 335.22 0c233.88,0 428.12,57.17 582.73,171.51 171.52,127.33 257.27,304.04 257.27,530.12zm-257.27 15.59c0,-324.82 -220.88,-487.23 -662.64,-487.23l0 980.32 70.16 0c171.51,0 309.88,-38.33 415.12,-114.98 118.24,-85.76 177.35,-211.79 177.35,-378.11zm1804.74 723.07l-274.8 0 -95.5 -187.1 -748.4 0 -85.76 187.1 -278.7 0 740.6 -1502.65 742.55 1502.65zm-479.44 -413.18l-263.11 -551.56 -282.6 551.56 545.72 0z"/>
   </g>
   <g>
    <polygon class="fil1" points="745.52,3988.92 602.85,4196.7 445.41,3957.7 290.05,3723.24 290.05,3723.24 -0,3285.51 1106.62,3386.29 791.76,4018.62 712.82,4177.19 675.22,4252.69 621.31,4360.97 572.97,4256.36 553.75,4214.73 549.75,4206.12 527.48,4157.88 434.59,3956.82 434.58,3956.83 431.63,3950.43 309.5,3686.05 155.27,3352.22 1242.02,3285.17 "/>
    <polygon class="fil1" points="1050.8,2546.8 547.96,2837.11 45.12,3127.43 45.12,2546.8 45.12,1966.17 547.96,2256.5 "/>
    <polygon class="fil1" points="1253.21,1778.58 672.59,1778.57 91.96,1778.58 382.28,1275.75 672.59,772.92 962.9,1275.75 "/>
    <polygon class="fil1" points="1367.14,2065.52 1257.18,1974.54 1208.55,2129.14 1160.36,2280.95 1160.36,2280.95 1070.38,2564.36 1657.38,2337.62 1387.71,2042.17 1320.09,1968.07 1287.9,1932.8 1241.72,1882.2 1231.64,1946.68 1227.64,1972.33 1226.8,1977.64 1222.16,2007.37 1202.81,2131.3 1202.8,2131.3 1202.19,2135.24 1176.73,2298.18 1144.58,2503.93 1746.82,2371.67 "/>
    <polygon class="fil1" points="1783.07,1519.42 1733.33,1385.65 1613.93,1495.23 1496.27,1602.6 1496.27,1602.6 1276.65,1803.06 1898.37,1900.19 1812.56,1509.49 1791.04,1411.5 1780.8,1364.86 1766.11,1297.96 1725.14,1348.76 1708.85,1368.98 1705.46,1373.16 1686.59,1396.58 1607.86,1494.22 1607.86,1494.22 1605.35,1497.32 1501.84,1625.71 1371.13,1787.81 1958.8,1974.4 "/>
    <polygon class="fil1" points="2416.31,1254.46 2440.13,1113.73 2281.94,1148.93 2126.36,1183.09 2126.36,1183.09 1835.93,1246.88 2325.78,1641.86 2446.82,1260.59 2477.18,1164.99 2491.63,1119.47 2512.36,1054.18 2451.49,1077.7 2427.27,1087.05 2422.24,1088.99 2394.19,1099.82 2277.18,1145.03 2277.18,1145.03 2273.47,1146.47 2119.64,1205.89 1925.38,1280.92 2341.02,1736.34 "/>
    <polygon class="fil1" points="1757.35,2803.47 1438.43,2723.46 1119.51,2643.44 1209.68,2959.65 1299.85,3275.83 1528.6,3039.65 "/>
    <polygon class="fil1" points="2379.12,3410.7 2150.38,3646.89 1921.62,3883.09 2240.54,3963.09 2559.46,4043.09 2469.28,3726.9 "/>
    <polygon class="fil1" points="1986.88,3190.38 1670.69,3280.56 1354.48,3370.72 1590.68,3599.46 1826.86,3828.22 1906.86,3509.3 "/>
    <polygon class="fil1" points="2015.83,3007.57 1970.97,3072.91 1921.46,2997.74 1872.6,2924.01 1872.6,2924.01 1781.38,2786.35 2129.4,2818.04 2030.38,3016.91 2005.55,3066.78 1993.73,3090.52 1976.77,3124.57 1961.58,3091.68 1955.53,3078.58 1954.27,3075.87 1947.26,3060.7 1918.05,2997.46 1918.04,2997.46 1917.12,2995.46 1878.72,2912.32 1830.21,2807.32 2171.98,2786.24 "/>
    <polygon class="fil1" points="2321.14,3235.87 2314.94,3314.89 2234.49,3274.55 2155.31,3235.13 2155.31,3235.13 2007.48,3161.52 2324.72,3014.96 2338.4,3236.69 2341.84,3292.29 2343.47,3318.76 2345.81,3356.74 2316.19,3335.84 2304.41,3327.52 2301.97,3325.8 2288.32,3316.18 2231.4,3276.02 2231.4,3276.02 2229.59,3274.73 2154.76,3221.94 2060.26,3155.27 2345.7,2966.12 "/>
    <polygon class="fil1" points="2573.7,3362.09 2555.7,3363.21 2555.7,3363.21 2390.88,3373.38 2573.7,3114.24 2573.7,3059.9 2433.45,3341.58 2548.64,3352.07 2573.7,3354.35 "/>
    <polygon class="fil1" points="2111.84,2554.03 1953.7,2645.33 1795.57,2736.63 1795.57,2554.03 1795.57,2371.43 1953.7,2462.73 "/>
    <polygon class="fil1" points="2573.7,2036.81 2501.19,1911.22 2409.89,1753.08 2573.7,1753.08 "/>
    <polygon class="fil1" points="2351.42,2135.03 2193.29,2043.73 2035.16,1952.42 2193.29,1861.13 2351.42,1769.83 2351.42,1952.42 "/>
    <polygon class="fil1" points="2175.5,2312.43 1992.9,2312.42 1810.29,2312.43 1901.6,2154.3 1992.9,1996.16 2084.2,2154.3 "/>
    <polygon class="fil1" points="2208.98,2405.56 2174.75,2377.23 2159.61,2425.36 2144.61,2472.62 2144.61,2472.62 2116.61,2560.84 2299.33,2490.27 2215.39,2398.29 2194.34,2375.22 2184.31,2364.24 2169.93,2348.49 2166.81,2368.57 2165.56,2376.55 2165.3,2378.2 2163.85,2387.45 2157.82,2426.03 2157.82,2426.03 2157.63,2427.26 2149.71,2477.98 2139.7,2542.02 2327.17,2500.86 "/>
    <polygon class="fil1" points="2338.45,2235.57 2322.98,2193.92 2285.81,2228.03 2249.18,2261.46 2249.18,2261.46 2180.81,2323.86 2374.34,2354.1 2347.64,2232.47 2340.94,2201.98 2337.74,2187.46 2333.18,2166.64 2320.42,2182.44 2315.35,2188.74 2314.29,2190.04 2308.43,2197.33 2283.91,2227.72 2283.91,2227.72 2283.13,2228.68 2250.92,2268.65 2210.22,2319.11 2393.16,2377.19 "/>
    <polygon class="fil1" points="2535.57,2153.09 2542.99,2109.27 2493.74,2120.23 2445.31,2130.88 2445.31,2130.88 2354.91,2150.73 2507.39,2273.68 2545.07,2155 2554.52,2125.23 2559.02,2111.06 2565.47,2090.74 2546.52,2098.06 2538.98,2100.97 2537.42,2101.58 2528.68,2104.96 2492.26,2119.02 2492.26,2119.02 2491.11,2119.47 2443.22,2137.96 2382.75,2161.32 2512.14,2303.09 "/>
    <polygon class="fil1" points="2330.45,2635.27 2231.17,2610.37 2131.89,2585.46 2159.96,2683.89 2188.04,2782.31 2259.24,2708.79 "/>
    <polygon class="fil1" points="2523.99,2824.29 2452.79,2897.82 2381.58,2971.34 2480.85,2996.24 2573.7,3019.54 2573.7,2998.6 2552.07,2922.72 "/>
    <polygon class="fil1" points="2401.9,2755.71 2303.47,2783.78 2205.04,2811.85 2278.56,2883.05 2352.08,2954.26 2376.99,2854.98 "/>
    <polygon class="fil1" points="1716.29,4714.86 1696.62,4966.14 1440.78,4837.88 1189,4712.52 1189,4712.52 718.95,4478.46 1727.7,4012.43 1771.2,4717.47 1782.11,4894.27 1787.29,4978.44 1794.75,5099.17 1700.58,5032.75 1663.13,5006.31 1655.35,5000.85 1611.95,4970.21 1430.97,4842.53 1430.96,4842.54 1425.21,4838.46 1187.25,4670.59 886.77,4458.59 1794.41,3857.15 "/>
    <polygon class="fil1" points="2573.7,5112.89 2462.15,5119.78 2462.15,5119.78 1938.05,5152.11 2573.7,4251.13 2573.7,4108.64 2558.76,4076.32 2073.45,5050.99 2439.68,5084.34 2573.7,5096.55 "/>
    <polygon class="fil1" points="2573.7,996.26 2288.82,502.84 1998.5,0 2573.7,0 "/>
    <polygon class="fil1" points="1812.61,1214.49 1309.8,924.17 806.95,633.86 1309.78,343.55 1812.61,53.24 1812.61,633.87 "/>
    <polygon class="fil1" points="1716.29,4714.86 1696.62,4966.14 1440.78,4837.88 1189,4712.52 1189,4712.52 718.95,4478.46 1727.7,4012.43 1771.2,4717.47 1782.11,4894.27 1787.29,4978.44 1794.75,5099.17 1700.58,5032.75 1663.13,5006.31 1655.35,5000.85 1611.95,4970.21 1430.97,4842.53 1430.96,4842.54 1425.21,4838.46 1187.25,4670.59 886.77,4458.59 1794.41,3857.15 "/>
    <polygon class="fil1" points="2573.7,5112.89 2462.15,5119.78 2462.15,5119.78 1938.05,5152.11 2573.7,4251.13 2573.7,4108.64 2558.76,4076.32 2073.45,5050.99 2439.68,5084.34 2573.7,5096.55 "/>
   </g>
  </g>
 </g>
</svg>
