<svg width="60" height="60" viewBox="0 0 60 60" fill="none" xmlns="http://www.w3.org/2000/svg">
<path d="M47.5 7.5C48.8261 7.5 50.0979 8.02678 51.0355 8.96447C51.9732 9.90215 52.5 11.1739 52.5 12.5V47.5C52.5 48.8261 51.9732 50.0979 51.0355 51.0355C50.0979 51.9732 48.8261 52.5 47.5 52.5H12.5C11.1739 52.5 9.90215 51.9732 8.96447 51.0355C8.02678 50.0979 7.5 48.8261 7.5 47.5V12.5C7.5 11.1739 8.02678 9.90215 8.96447 8.96447C9.90215 8.02678 11.1739 7.5 12.5 7.5H47.5ZM46.25 46.25V33C46.25 30.8385 45.3913 28.7655 43.8629 27.2371C42.3345 25.7087 40.2615 24.85 38.1 24.85C35.975 24.85 33.5 26.15 32.3 28.1V25.325H25.325V46.25H32.3V33.925C32.3 32 33.85 30.425 35.775 30.425C36.7033 30.425 37.5935 30.7937 38.2499 31.4501C38.9063 32.1065 39.275 32.9967 39.275 33.925V46.25H46.25ZM17.2 21.4C18.3139 21.4 19.3822 20.9575 20.1698 20.1698C20.9575 19.3822 21.4 18.3139 21.4 17.2C21.4 14.875 19.525 12.975 17.2 12.975C16.0795 12.975 15.0048 13.4201 14.2125 14.2125C13.4201 15.0048 12.975 16.0795 12.975 17.2C12.975 19.525 14.875 21.4 17.2 21.4ZM20.675 46.25V25.325H13.75V46.25H20.675Z" fill="#5B5B5B"/>
</svg>
