<svg width="60" height="60" viewBox="0 0 60 60" fill="none" xmlns="http://www.w3.org/2000/svg">
<path d="M41.875 34.9C42.5 35.225 42.9 35.4 43.025 35.65C43.175 35.925 43.125 37.175 42.5 38.6C42 40 39.4 41.35 38.25 41.4C37.1 41.45 37.075 42.3 30.85 39.575C24.625 36.85 20.875 30.2 20.575 29.775C20.275 29.35 18.175 26.325 18.275 23.25C18.4 20.2 20 18.75 20.65 18.15C21.25 17.5 21.925 17.425 22.35 17.5H23.525C23.9 17.5 24.425 17.35 24.9 18.625L26.625 23.3C26.775 23.625 26.875 24 26.65 24.4L25.975 25.425L25 26.475C24.7 26.775 24.35 27.1 24.7 27.725C25 28.375 26.25 30.45 28 32.175C30.275 34.375 32.275 35.1 32.875 35.425C33.475 35.775 33.85 35.725 34.225 35.325L36.25 32.975C36.725 32.35 37.125 32.5 37.7 32.7L41.875 34.9ZM30 5C33.2831 5 36.534 5.64664 39.5671 6.90301C42.6002 8.15938 45.3562 10.0009 47.6777 12.3223C49.9991 14.6438 51.8406 17.3998 53.097 20.4329C54.3534 23.4661 55 26.717 55 30C55 36.6304 52.3661 42.9893 47.6777 47.6777C42.9893 52.3661 36.6304 55 30 55C25.075 55 20.5 53.575 16.625 51.125L5.00002 55L8.87502 43.375C6.33878 39.3754 4.99464 34.736 5.00002 30C5.00002 23.3696 7.63394 17.0107 12.3223 12.3223C17.0108 7.63392 23.3696 5 30 5ZM30 10C24.6957 10 19.6086 12.1071 15.8579 15.8579C12.1072 19.6086 10 24.6957 10 30C10 34.3 11.35 38.275 13.65 41.525L11.25 48.75L18.475 46.35C21.8445 48.7339 25.8725 50.0096 30 50C35.3043 50 40.3914 47.8929 44.1422 44.1421C47.8929 40.3914 50 35.3043 50 30C50 24.6957 47.8929 19.6086 44.1422 15.8579C40.3914 12.1071 35.3043 10 30 10Z" fill="#5B5B5B"/>
</svg>
